<svg width="51" height="51" viewBox="0 0 51 51" fill="none" xmlns="http://www.w3.org/2000/svg">
<path d="M25.9601 50.64C21.0053 50.642 16.1612 49.1744 12.0405 46.4231C7.91969 43.6717 4.70749 39.7601 2.80999 35.183C0.912485 30.6059 0.415087 25.5688 1.38049 20.709C2.34599 15.8491 4.73099 11.3847 8.23389 7.88043C11.7369 4.37623 16.2003 1.98943 21.0598 1.02213C25.9193 0.0547285 30.9565 0.550228 35.5344 2.44593C40.1123 4.34163 44.0251 7.55233 46.7781 11.672C49.531 15.7916 51.0004 20.6352 51.0004 25.59C50.9999 32.2319 48.3619 38.6017 43.6663 43.2991C38.9707 47.9965 32.602 50.6369 25.9601 50.64ZM44.2938 24.2223H32.6609C32.3143 22.4863 31.3299 20.9432 29.9017 19.8973C28.4735 18.8514 26.7052 18.3786 24.9456 18.5722C23.186 18.7658 21.5628 19.6117 20.3961 20.9431C19.2295 22.2745 18.604 23.9947 18.6432 25.7645C18.6823 27.5343 19.3832 29.2251 20.6076 30.5036C21.832 31.7821 23.491 32.5555 25.2574 32.6711C27.0239 32.7867 28.7695 32.2362 30.1501 31.1281C31.5306 30.0201 32.4459 28.435 32.7154 26.6854H44.2841C44.6107 26.6854 44.924 26.5557 45.155 26.3247C45.3859 26.0937 45.5157 25.7805 45.5157 25.4538C45.5157 25.1272 45.3859 24.8139 45.155 24.583C44.924 24.352 44.6107 24.2223 44.2841 24.2223H44.2938Z" fill="black"/>
</svg>
