<svg width="59" height="51" viewBox="0 0 59 51" fill="none" xmlns="http://www.w3.org/2000/svg">
<mask id="mask0_1_160" style="mask-type:luminance" maskUnits="userSpaceOnUse" x="0" y="0" width="59" height="51">
<path d="M58.1386 0.603516H0.105774V50.3964H58.1386V0.603516Z" fill="white"/>
</mask>
<g mask="url(#mask0_1_160)">
<path d="M18.3138 5.91082C15.3926 6.85868 12.452 7.80653 11.7607 8.02375L10.5241 8.42856V17.137C10.5241 22.3502 10.563 26.2798 10.6214 26.9316C11.0499 31.4931 12.9973 35.8177 16.2495 39.4117C16.9895 40.2312 28.7324 50.6082 29.0634 50.7366C29.1998 50.7859 39.521 41.8602 41.2153 40.2213C44.1559 37.3875 46.4538 33.2408 47.2717 29.2716C47.7001 27.1783 47.7293 26.3983 47.7001 17.1173L47.6709 8.38907L41.0594 6.27614C37.4276 5.12094 34.4383 4.18295 34.4188 4.19283C34.4091 4.21257 34.9543 5.30853 35.6457 6.64146L36.9018 9.06047L38.781 9.67263C39.8131 10.0083 41.3711 10.5119 42.2474 10.7883L43.8346 11.2919L43.7956 19.3092C43.7664 27.0105 43.7566 27.3659 43.5619 28.2644C42.8219 31.651 41.2931 34.5243 38.9466 36.9532C38.4987 37.4172 36.2202 39.461 33.893 41.4851C31.5659 43.519 29.5405 45.2864 29.3945 45.4246L29.1413 45.6616L24.672 41.7616C19.2095 36.9828 18.3916 36.1732 17.0869 34.1392C16.084 32.5693 15.344 30.8809 14.896 29.1333C14.4579 27.3561 14.4189 26.6946 14.4189 18.776V11.3017L15.8113 10.8574C16.5708 10.6106 18.1288 10.1071 19.2679 9.74175C20.3975 9.37642 21.3323 9.04072 21.3323 9.0111C21.3323 8.98148 21.8775 7.8954 22.5493 6.60196C23.2212 5.29867 23.7664 4.22245 23.7664 4.2027C23.7664 4.14346 23.6496 4.18295 18.3138 5.91082Z" fill="#FF4C2F"/>
<path d="M28.869 4.48912C28.7814 4.66685 26.3275 9.41601 23.4259 15.034L18.1485 25.2531L18.2264 26.0825C18.4016 27.7808 19.0248 29.5777 20.0375 31.2069C20.3978 31.7993 20.5048 31.9079 20.6022 31.7993C20.6606 31.7301 22.5886 28.0375 24.8865 23.5944C27.1747 19.1612 29.0735 15.5277 29.1123 15.5277C29.1416 15.5277 31.0695 19.1217 33.3869 23.5055C35.7044 27.8894 37.642 31.5524 37.7004 31.6512C37.7978 31.819 37.8173 31.8091 37.9731 31.6018C38.976 30.2689 39.8036 28.0671 40.0373 26.122L40.1542 25.1347L34.6235 14.6786C31.5856 8.9322 29.0831 4.2028 29.0637 4.19292C29.0539 4.17317 28.9663 4.30153 28.869 4.48912Z" fill="#FF4C2F"/>
<path d="M26.3951 29.6369L23.7175 35.0574L25.2267 36.3904C26.0544 37.121 27.2715 38.1775 27.9239 38.7304L29.1215 39.7375L29.3844 39.5202C29.5402 39.4018 30.7379 38.3454 32.0524 37.1704L34.4574 35.0377L31.7895 29.627C30.3192 26.6551 29.1118 24.2163 29.0923 24.2163C29.0826 24.2163 27.8655 26.6551 26.3951 29.6369Z" fill="#FF4C2F"/>
</g>
</svg>
