<svg width="41" height="37" viewBox="0 0 41 37" fill="none" xmlns="http://www.w3.org/2000/svg">
<g clip-path="url(#clip0_1622_2)">
<path fill-rule="evenodd" clip-rule="evenodd" d="M11.6574 32.899L16.492 33.7501V32.6371L16.8867 32.3752H19.6493V33.6846V34.6012H16.6894L13.0387 33.5537L11.6574 32.899Z" fill="#CDBDB2"/>
</g>
<g clip-path="url(#clip1_1622_2)">
<path fill-rule="evenodd" clip-rule="evenodd" d="M28.3426 32.899L23.6067 33.7501V32.6371L23.2121 32.3752H20.4495V33.6846V34.6012H23.4094L27.0599 33.5537L28.3426 32.899Z" fill="#CDBDB2"/>
</g>
<g clip-path="url(#clip2_1622_2)">
<path fill-rule="evenodd" clip-rule="evenodd" d="M17.4058 28.9741L17.0769 31.3746L17.4879 31.0836H21.7633L22.2567 31.3746L21.9278 28.9741L21.27 28.6104L17.9812 28.6832L17.4058 28.9741Z" fill="#393939"/>
</g>
<g clip-path="url(#clip3_1622_2)">
<path fill-rule="evenodd" clip-rule="evenodd" d="M28.3739 32.7481L23.4877 29.3838L23.8635 32.2935V33.9302L27.2463 33.2937L28.3739 32.7481Z" fill="#DFCEC3"/>
</g>
<g clip-path="url(#clip4_1622_2)">
<path fill-rule="evenodd" clip-rule="evenodd" d="M2.83341 18.0037L0 25.4822L7.08354 25.1129H11.6371V21.8815L11.4348 15.2339L10.4228 15.9725L2.83341 18.0037Z" fill="#F89D35"/>
</g>
<g clip-path="url(#clip5_1622_2)">
<path fill-rule="evenodd" clip-rule="evenodd" d="M14.5355 5.11768L16.9641 10.7393L18.0773 27.1022H22.0238L23.2381 10.7393L25.4643 5.11768H14.5355Z" fill="#F89C35"/>
</g>
<g clip-path="url(#clip6_1622_2)">
<path fill-rule="evenodd" clip-rule="evenodd" d="M8.7919 19.3542L16.8823 19.4997L15.9944 22.5549L12.1465 21.8275L8.7919 19.3542Z" fill="#D87C30"/>
</g>
<g clip-path="url(#clip7_1622_2)">
<path fill-rule="evenodd" clip-rule="evenodd" d="M8.7039 19.5605L11.6857 22.6158V25.671L8.7039 19.5605Z" fill="#EA8D3A"/>
</g>
<g clip-path="url(#clip8_1622_2)">
<path fill-rule="evenodd" clip-rule="evenodd" d="M12.5198 23.2068L16.2784 24.1421L17.5001 28.1638L16.6543 28.6313L12.5198 26.1996V23.2068Z" fill="#F89D35"/>
</g>
<g clip-path="url(#clip9_1622_2)">
<path fill-rule="evenodd" clip-rule="evenodd" d="M12.3778 26.5496L11.6261 31.6234L16.6064 28.5955L12.3778 26.5496Z" fill="#EB8F35"/>
</g>
<g clip-path="url(#clip10_1622_2)">
<path fill-rule="evenodd" clip-rule="evenodd" d="M7.47038 26.6315L11.6727 26.5496L10.9419 31.6234L7.47038 26.6315Z" fill="#D87C30"/>
</g>
<g clip-path="url(#clip11_1622_2)">
<path fill-rule="evenodd" clip-rule="evenodd" d="M2.41178 34.5452L11.7299 32.1347L7.56411 26.689L0 27.1353L2.41178 34.5452Z" fill="#EB8F35"/>
</g>
<g clip-path="url(#clip12_1622_2)">
<path fill-rule="evenodd" clip-rule="evenodd" d="M11.6261 32.7481L16.6064 29.3838L16.2305 32.2935V33.9302L12.8477 33.2937L11.6261 32.7481Z" fill="#DFCEC3"/>
</g>
<g clip-path="url(#clip13_1622_2)">
<path fill-rule="evenodd" clip-rule="evenodd" d="M14.7657 21.3569L15.7305 22.6118L12.3101 22.0662L14.7657 21.3569Z" fill="#393939"/>
</g>
<g clip-path="url(#clip14_1622_2)">
<path fill-rule="evenodd" clip-rule="evenodd" d="M17.2465 19.6135L17.612 27.202L16.5156 23.3185L17.2465 19.6135Z" fill="#EA8E3A"/>
</g>
<g clip-path="url(#clip15_1622_2)">
<path fill-rule="evenodd" clip-rule="evenodd" d="M16.2903 11.2124L12.0479 14.7041L8.7919 18.5837L16.8823 18.8748L16.2903 11.2124Z" fill="#E8821E"/>
</g>
<g clip-path="url(#clip16_1622_2)">
<path fill-rule="evenodd" clip-rule="evenodd" d="M37.9305 18.5498L41 27.388L33.3262 26.9516H28.3931V23.1327L28.6123 15.2764L29.7086 16.1493L37.9305 18.5498Z" fill="#F89D35"/>
<path fill-rule="evenodd" clip-rule="evenodd" d="M38.5882 36.4439L29.2701 33.4977L33.4359 26.8418L41 27.3873L38.5882 36.4439Z" fill="#EB8F35"/>
<path fill-rule="evenodd" clip-rule="evenodd" d="M32.1201 19.5322L23.1308 19.7504L24.1173 24.3333L28.3928 23.2421L32.1201 19.5322Z" fill="#D87C30"/>
<path fill-rule="evenodd" clip-rule="evenodd" d="M32.1201 19.6406L28.3928 23.1322V26.6239L32.1201 19.6406Z" fill="#EA8D3A"/>
<path fill-rule="evenodd" clip-rule="evenodd" d="M28.3935 23.2415L24.0085 24.3327L22.5833 29.0247L23.57 29.5702L28.3935 26.7332V23.2415Z" fill="#F89D35"/>
<path fill-rule="evenodd" clip-rule="evenodd" d="M28.3925 26.7336L29.2695 33.4987L23.569 29.5706L28.3925 26.7336Z" fill="#EB8F35"/>
<path fill-rule="evenodd" clip-rule="evenodd" d="M33.4355 26.8428L28.3927 26.7336L29.2698 33.4987L33.4355 26.8428Z" fill="#D87C30"/>
<path fill-rule="evenodd" clip-rule="evenodd" d="M23.1303 19.7498L22.5821 29.0247L24.2266 24.2781L23.1303 19.7498Z" fill="#EA8E3A"/>
<path fill-rule="evenodd" clip-rule="evenodd" d="M25.5429 21.7141L24.3369 24.2238L28.6124 23.1327L25.5429 21.7141Z" fill="#393939"/>
<path fill-rule="evenodd" clip-rule="evenodd" d="M23.7885 11.239L28.5024 15.1671L32.1201 19.5317L23.1308 19.8591L23.7885 11.239Z" fill="#E8821E"/>
<path fill-rule="evenodd" clip-rule="evenodd" d="M38.6982 0L23.7891 11.2387L26.3104 5.12829L38.6982 0Z" fill="#E88F35"/>
<path fill-rule="evenodd" clip-rule="evenodd" d="M38.6986 0L40.6719 6.00131L39.5756 12.5482L40.343 12.9846L39.2467 13.9667L40.1237 14.7305L38.9179 15.8216L39.6852 16.4763L37.9312 18.6586L29.7093 16.149C25.6896 12.9483 23.7164 11.3116 23.7894 11.2388C23.8625 11.1661 28.8322 7.4198 38.6986 0Z" fill="#8E5A30"/>
</g>
<g clip-path="url(#clip17_1622_2)">
<path fill-rule="evenodd" clip-rule="evenodd" d="M2.28381 0L16.2612 9.36558L13.8974 4.27358L2.28381 0Z" fill="#E88F35"/>
</g>
<g clip-path="url(#clip18_1622_2)">
<path fill-rule="evenodd" clip-rule="evenodd" d="M2.17354 0L0.309891 5.68545L1.34525 11.8878L0.620499 12.3012L1.65586 13.2316L0.82757 13.9552L1.96646 14.9889L1.24171 15.6091L2.89829 17.6766L10.6634 15.2991C14.4598 12.2668 16.3234 10.7163 16.2545 10.6473C16.1854 10.5784 11.4918 7.02928 2.17354 0Z" fill="#8E5A30"/>
</g>
<defs>
<clipPath id="clip0_1622_2">
<rect width="9" height="3" fill="white" transform="translate(11 32)"/>
</clipPath>
<clipPath id="clip1_1622_2">
<rect width="9" height="3" fill="white" transform="translate(20 32)"/>
</clipPath>
<clipPath id="clip2_1622_2">
<rect width="6" height="4" fill="white" transform="translate(17 28)"/>
</clipPath>
<clipPath id="clip3_1622_2">
<rect width="6" height="5" fill="white" transform="translate(23 29)"/>
</clipPath>
<clipPath id="clip4_1622_2">
<rect width="12" height="11" fill="white" transform="translate(0 15)"/>
</clipPath>
<clipPath id="clip5_1622_2">
<rect width="12" height="23" fill="white" transform="translate(14 5)"/>
</clipPath>
<clipPath id="clip6_1622_2">
<rect width="9" height="4" fill="white" transform="translate(8 19)"/>
</clipPath>
<clipPath id="clip7_1622_2">
<rect width="4" height="7" fill="white" transform="translate(8 19)"/>
</clipPath>
<clipPath id="clip8_1622_2">
<rect width="6" height="6" fill="white" transform="translate(12 23)"/>
</clipPath>
<clipPath id="clip9_1622_2">
<rect width="6" height="6" fill="white" transform="translate(11 26)"/>
</clipPath>
<clipPath id="clip10_1622_2">
<rect width="5" height="6" fill="white" transform="translate(7 26)"/>
</clipPath>
<clipPath id="clip11_1622_2">
<rect width="12" height="9" fill="white" transform="translate(0 26)"/>
</clipPath>
<clipPath id="clip12_1622_2">
<rect width="6" height="5" fill="white" transform="translate(11 29)"/>
</clipPath>
<clipPath id="clip13_1622_2">
<rect width="4" height="2" fill="white" transform="translate(12 21)"/>
</clipPath>
<clipPath id="clip14_1622_2">
<rect width="2" height="9" fill="white" transform="translate(16 19)"/>
</clipPath>
<clipPath id="clip15_1622_2">
<rect width="9" height="8" fill="white" transform="translate(8 11)"/>
</clipPath>
<clipPath id="clip16_1622_2">
<rect width="19" height="37" fill="white" transform="translate(22)"/>
</clipPath>
<clipPath id="clip17_1622_2">
<rect width="15" height="10" fill="white" transform="translate(2)"/>
</clipPath>
<clipPath id="clip18_1622_2">
<rect width="17" height="18" fill="white"/>
</clipPath>
</defs>
</svg>
